<?xml version="1.0" encoding="utf-8"?>
<!-- Generator: Adobe Illustrator 18.0.0, SVG Export Plug-In . SVG Version: 6.00 Build 0)  -->
<!DOCTYPE svg PUBLIC "-//W3C//DTD SVG 1.1//EN" "http://www.w3.org/Graphics/SVG/1.1/DTD/svg11.dtd">
<svg version="1.1"
	 id="svg8" xmlns:svg="http://www.w3.org/2000/svg" xmlns:rdf="http://www.w3.org/1999/02/22-rdf-syntax-ns#" xmlns:cc="http://creativecommons.org/ns#" xmlns:dc="http://purl.org/dc/elements/1.1/"
	 xmlns="http://www.w3.org/2000/svg" xmlns:xlink="http://www.w3.org/1999/xlink" x="0px" y="0px" viewBox="0 0 260.2 240.7"
	 enable-background="new 0 0 260.2 240.7" xml:space="preserve">
<g id="layer1" transform="translate(-58.945125,-103.2046)">
	<path id="path4242" fill="#FFFFFF" d="M149.5,342.4c-44.1-6.9-77.2-36.5-88-78.5c-10.2-39.7,10.8-89.3,45.7-107.5
		c22.1-11.6,43.7-12.3,85.4-2.8l4.4,1l-4.6-6c-10.7-14-14.3-25.9-10.3-33.4c2.1-3.9,12.3-9.5,20.9-11.3c5.8-1.3,5.9-1.2,4.9,3.7
		c-2.9,13.7-5.1,35.7-4.1,39.9c2.1,8.4,6.6,9.1,24.6,3.8c8.9-2.6,19.3-5.5,23.2-6.5c8.3-2,28.1-0.6,40.5,2.8l8.8,2.5l-9.7,0.3
		c-5.3,0.1-11.2,0.9-13,1.6c-2.7,1.1-1.8,1.9,4.8,4.4c10.8,4.1,23.9,16.1,30.3,27.8c4.7,8.6,5.2,11,5.5,28.8l0.4,19.4l-1.6-13.2
		c-2-16.5-8.1-29.1-18.5-38.7c-7.2-6.6-26.3-17.3-28-15.6c-0.4,0.4,1.7,5.4,4.5,11.2c3.5,7,5.5,14.3,6.1,22l0.9,11.4l-3.6-8.8
		c-2-4.8-5.9-11.7-8.9-15.3c-9.3-11.3-29.1-18.5-39.5-14.5c-2.5,1-2.4,1.8,1,7.2l3.8,6.1l-6.8-3.6c-3.7-2-9.2-3.6-12.1-3.6
		c-15.8,0-47.2,24.4-57.2,44.5c-2.9,5.9-5.3,12.2-5.3,14c0,6.3-3.3,1.3-4.5-6.8c-2.3-15.7,3.8-39,13.6-51.5
		c5.5-7.1,4.3-7.9-10.3-6.6c-19.2,1.6-32.3,8.1-48.1,24c-13.5,13.5-14.2,12.7-5.1-6.3c2.8-5.9,9.2-14.8,14.1-19.8
		c4.9-5,8.3-9.1,7.5-9c-4.2,0-20.4,11.5-27.5,19.3c-13.6,15.1-19.3,36.9-16.7,64.3c3.2,34.8,29.3,62.5,72.7,76.9
		c9.9,3.3,16.2,4.1,31.7,4.1c17.3,0,20.4-0.5,29.4-4.7c12-5.6,24.2-17.3,30.3-29c5.8-11.2,5.9-8.3,0,4c-2.5,5.3-8.8,14-13.9,19.3
		c-10.4,10.6-10,10.9,8.4,7c17.6-3.7,34.4-13.4,50.7-29.1c7.7-7.4,14-13,14-12.3c0,2.7-15.8,22.4-24.9,30.9
		C250.6,333.1,189.9,348.8,149.5,342.4L149.5,342.4z"/>
</g>
</svg>
